<?xml version="1.0" standalone="no"?>
<!DOCTYPE svg PUBLIC "-//W3C//DTD SVG 20010904//EN"
 "http://www.w3.org/TR/2001/REC-SVG-20010904/DTD/svg10.dtd">
<svg version="1.0" xmlns="http://www.w3.org/2000/svg"
 width="225.000000pt" height="225.000000pt" viewBox="0 0 225.000000 225.000000"
 preserveAspectRatio="xMidYMid meet">
<metadata>
Created by potrace 1.13, written by Peter Selinger 2001-2015
</metadata>
<g transform="translate(0.000000,225.000000) scale(0.100000,-0.100000)"
fill="#000000" stroke="none">
<path d="M675 1666 c-16 -7 -39 -23 -50 -36 -19 -20 -20 -39 -23 -247 l-3
-225 29 20 c15 11 40 24 55 27 15 4 44 16 64 26 49 25 137 25 183 1 19 -11 48
-22 64 -26 41 -10 133 -101 141 -139 4 -18 16 -46 26 -63 11 -19 19 -50 19
-78 l0 -46 100 0 99 0 -21 -36 c-14 -24 -21 -53 -21 -88 0 -55 12 -86 47 -124
71 -79 208 -71 273 15 37 48 43 134 15 189 l-20 39 36 20 c33 19 39 29 69 125
18 57 35 116 38 130 8 38 -15 62 -66 69 l-44 6 -3 114 c-3 121 3 141 43 141
12 0 28 7 35 15 38 46 -56 65 -107 21 -28 -24 -28 -25 -31 -160 l-4 -136 -161
2 -161 3 -83 194 c-45 106 -92 204 -104 217 -12 13 -39 28 -58 34 -55 15 -340
12 -376 -4z m358 -90 c19 -21 44 -74 112 -238 l15 -38 -230 0 -230 0 0 130 c0
175 -5 170 175 170 130 0 137 -1 158 -24z m538 -765 c31 -31 36 -59 17 -94
-17 -33 -39 -46 -76 -47 -75 0 -111 94 -56 145 37 34 78 33 115 -4z"/>
<path d="M745 1166 c-11 -7 -37 -19 -57 -25 -43 -14 -114 -88 -124 -128 -4
-15 -13 -37 -20 -48 -18 -26 -18 -144 0 -170 7 -11 16 -33 20 -49 4 -15 14
-40 24 -54 22 -33 90 -82 115 -82 11 0 29 -8 40 -17 25 -24 131 -24 178 -1 19
9 48 22 65 28 47 17 89 67 118 141 29 74 35 171 12 204 -7 11 -16 34 -20 50
-8 34 -92 125 -116 125 -8 0 -32 9 -53 20 -44 24 -151 28 -182 6z m160 -115
c104 -48 143 -156 94 -259 -61 -125 -244 -137 -324 -22 -107 155 60 360 230
281z"/>
<path d="M759 951 c-64 -64 -20 -174 70 -174 61 0 101 40 101 101 0 93 -105
138 -171 73z"/>
</g>
</svg>
