<?xml version="1.0" standalone="no"?>
<!DOCTYPE svg PUBLIC "-//W3C//DTD SVG 20010904//EN"
 "http://www.w3.org/TR/2001/REC-SVG-20010904/DTD/svg10.dtd">
<svg version="1.0" xmlns="http://www.w3.org/2000/svg"
 width="225.000000pt" height="225.000000pt" viewBox="0 0 225.000000 225.000000"
 preserveAspectRatio="xMidYMid meet">
<metadata>
Created by potrace 1.13, written by Peter Selinger 2001-2015
</metadata>
<g transform="translate(0.000000,225.000000) scale(0.100000,-0.100000)"
fill="#000000" stroke="none">
<path d="M983 2229 c-35 -11 -63 -24 -63 -29 0 -5 -9 -12 -20 -15 -31 -10
-112 -83 -137 -124 -12 -20 -30 -58 -39 -86 -9 -27 -20 -54 -25 -59 -12 -13
-12 -183 0 -191 5 -3 13 -20 16 -38 27 -128 179 -273 303 -289 9 -1 -207 -5
-480 -8 -460 -5 -499 -6 -515 -23 -16 -16 -18 -40 -18 -242 0 -191 2 -227 16
-240 10 -10 42 -18 87 -22 l72 -6 0 -428 0 -429 125 0 124 0 3 128 3 127 690
0 690 0 3 -127 3 -128 124 0 125 0 0 429 0 428 72 6 c45 4 77 12 87 22 14 13
16 49 16 240 0 202 -2 226 -18 242 -16 17 -55 18 -515 23 -273 3 -489 7 -480
8 124 16 276 161 303 289 3 18 11 35 16 38 12 8 12 178 0 190 -5 6 -16 33 -25
60 -9 28 -27 66 -39 86 -25 41 -106 114 -137 124 -11 3 -20 10 -20 15 0 5 -30
18 -66 30 -86 26 -197 26 -281 -1z m402 -409 l0 -85 -260 0 -260 0 -3 74 c-2
41 -1 80 2 88 5 11 53 13 263 11 l258 -3 0 -85z m-835 -530 c0 -14 -59 -143
-68 -150 -4 -3 -26 -45 -48 -95 l-41 -90 -127 -3 c-69 -1 -126 0 -126 4 0 9
106 226 143 292 l29 52 119 0 c74 0 119 -4 119 -10z m520 1 c0 -15 -40 -105
-54 -121 -8 -8 -32 -58 -56 -110 -23 -52 -47 -98 -54 -102 -16 -11 -246 -10
-246 1 0 15 31 85 45 101 7 8 30 53 51 100 20 46 46 97 57 112 21 28 21 28
139 28 65 0 118 -4 118 -9z m520 0 c0 -15 -31 -85 -45 -101 -7 -8 -30 -53 -51
-100 -20 -46 -46 -97 -57 -112 -21 -28 -21 -28 -139 -28 -65 0 -118 4 -118 9
0 15 40 105 54 121 8 8 32 58 56 110 23 52 47 98 54 102 16 11 246 10 246 -1z
m520 1 c0 -4 -37 -81 -83 -172 l-83 -165 -122 -3 c-80 -2 -122 1 -122 8 0 15
59 143 69 150 5 3 25 43 46 90 20 47 42 88 48 92 16 10 247 10 247 0z m-292
-644 l-3 -213 -690 0 -690 0 -3 213 -2 212 695 0 695 0 -2 -212z"/>
</g>
</svg>
