<?xml version="1.0" standalone="no"?>
<!DOCTYPE svg PUBLIC "-//W3C//DTD SVG 20010904//EN"
 "http://www.w3.org/TR/2001/REC-SVG-20010904/DTD/svg10.dtd">
<svg version="1.0" xmlns="http://www.w3.org/2000/svg"
 width="225.000000pt" height="225.000000pt" viewBox="0 0 225.000000 225.000000"
 preserveAspectRatio="xMidYMid meet">
<metadata>
Created by potrace 1.13, written by Peter Selinger 2001-2015
</metadata>
<g transform="translate(0.000000,225.000000) scale(0.100000,-0.100000)"
fill="#000000" stroke="none">
<path d="M149 1957 c-21 -16 -39 -51 -39 -75 0 -43 35 -65 156 -102 l119 -35
138 -410 137 -410 -15 -50 c-13 -48 -17 -51 -58 -62 -58 -16 -125 -68 -160
-125 -34 -54 -45 -140 -28 -205 41 -150 204 -237 352 -188 60 20 153 104 165
149 l6 26 213 0 212 0 18 -41 c10 -22 39 -58 63 -80 108 -95 272 -90 373 11
134 134 93 361 -81 439 -62 28 -168 28 -226 0 -52 -24 -117 -88 -134 -129
l-12 -30 -213 0 -213 0 -13 33 c-7 17 -35 53 -62 80 -37 36 -47 52 -42 67 6
20 15 20 526 20 565 0 569 0 605 56 18 26 204 663 204 696 0 9 -11 30 -24 45
l-24 28 -752 5 -753 5 -32 93 c-18 52 -39 100 -46 107 -16 16 -286 95 -321 95
-13 0 -30 -6 -39 -13z m1786 -484 c-3 -16 -34 -125 -68 -243 l-63 -215 -496
-3 -497 -2 -51 162 c-28 90 -62 197 -76 238 -13 41 -24 78 -24 83 0 4 288 7
641 7 l641 0 -7 -27z m-1199 -844 c48 -46 39 -136 -17 -164 -76 -40 -159 4
-159 83 0 43 28 87 64 103 32 13 86 3 112 -22z m922 17 c26 -13 42 -37 56 -79
8 -25 -17 -81 -45 -101 -36 -25 -92 -21 -128 10 -95 80 7 227 117 170z"/>
<path d="M1276 1402 c-500 -2 -505 -3 -506 -39 0 -6 7 -19 16 -27 14 -14 75
-16 519 -16 444 0 505 2 519 16 30 29 11 64 -36 67 -13 1 -243 1 -512 -1z"/>
<path d="M852 1178 c-15 -15 -15 -41 0 -56 9 -9 124 -12 454 -12 480 0 474 -1
460 55 l-6 25 -448 0 c-335 0 -451 -3 -460 -12z"/>
</g>
</svg>
