<?xml version="1.0" standalone="no"?>
<!DOCTYPE svg PUBLIC "-//W3C//DTD SVG 20010904//EN"
 "http://www.w3.org/TR/2001/REC-SVG-20010904/DTD/svg10.dtd">
<svg version="1.0" xmlns="http://www.w3.org/2000/svg"
 width="225.000000pt" height="225.000000pt" viewBox="0 0 225.000000 225.000000"
 preserveAspectRatio="xMidYMid meet">
<metadata>
Created by potrace 1.13, written by Peter Selinger 2001-2015
</metadata>
<g transform="translate(0.000000,225.000000) scale(0.100000,-0.100000)"
fill="#000000" stroke="none">
<path d="M562 1693 l-561 -496 57 -64 c31 -35 59 -62 63 -61 5 2 229 199 500
438 271 239 498 435 505 435 7 0 233 -196 504 -435 270 -239 495 -436 499
-438 4 -1 33 26 64 61 l56 64 -541 479 c-298 263 -552 487 -563 496 -22 17
-31 9 -583 -479z"/>
<path d="M340 1834 l0 -206 138 125 137 124 3 82 3 81 -141 0 -140 0 0 -206z"/>
<path d="M730 1456 l-385 -342 -3 -515 c-2 -474 -1 -515 15 -526 12 -10 82
-13 265 -13 l248 0 0 225 c0 212 1 226 20 245 19 19 33 20 235 20 202 0 216
-1 235 -20 19 -19 20 -33 20 -245 l0 -225 246 0 c150 0 253 4 265 10 18 10 19
26 18 528 l0 517 -386 340 c-212 187 -391 341 -397 342 -6 1 -184 -152 -396
-341z"/>
</g>
</svg>
