<?xml version="1.0" standalone="no"?>
<!DOCTYPE svg PUBLIC "-//W3C//DTD SVG 20010904//EN"
 "http://www.w3.org/TR/2001/REC-SVG-20010904/DTD/svg10.dtd">
<svg version="1.0" xmlns="http://www.w3.org/2000/svg"
 width="225.000000pt" height="204.000000pt" viewBox="0 0 225.000000 204.000000"
 preserveAspectRatio="xMidYMid meet">
<metadata>
Created by potrace 1.13, written by Peter Selinger 2001-2015
</metadata>
<g transform="translate(0.000000,204.000000) scale(0.100000,-0.100000)"
fill="#000000" stroke="none">
<path d="M765 1680 c-5 -5 -32 -30 -59 -55 -27 -25 -53 -45 -58 -45 -4 0 -30
-22 -56 -50 -27 -27 -51 -50 -55 -50 -4 0 -32 -25 -62 -55 -31 -30 -62 -55
-70 -55 -8 0 -15 -4 -15 -9 0 -11 -80 -91 -91 -91 -5 0 -31 -22 -58 -50 -27
-27 -52 -50 -56 -50 -4 0 -30 -22 -57 -50 l-50 -50 51 0 51 0 0 -220 c0 -189
2 -220 15 -220 8 0 15 5 15 10 0 6 28 10 65 10 36 0 65 -4 65 -8 0 -4 21 -13
46 -20 25 -7 53 -20 62 -28 13 -13 35 -15 124 -12 72 2 112 8 117 16 4 7 31
18 59 24 29 7 52 16 52 20 0 5 20 8 45 8 25 0 45 -4 45 -8 0 -5 24 -14 54 -21
30 -7 57 -18 59 -24 5 -16 225 -17 235 -1 4 6 32 17 62 24 30 7 60 19 67 26
10 9 13 65 13 218 l0 206 51 0 51 0 -50 50 c-27 28 -53 50 -56 50 -4 0 -27 20
-51 44 l-45 44 0 181 0 181 -125 0 -125 0 0 -65 c0 -40 -4 -65 -11 -65 -6 0
-36 25 -66 55 -31 30 -59 55 -64 55 -5 0 -28 20 -52 45 -45 46 -55 51 -72 35z"/>
<path d="M1720 980 c0 -5 -7 -10 -15 -10 -8 0 -15 -7 -15 -15 0 -8 -4 -15 -9
-15 -5 0 -15 -16 -22 -35 -7 -19 -17 -35 -21 -35 -4 0 -8 -7 -8 -15 0 -9 -12
-21 -27 -28 -16 -6 -31 -17 -36 -24 -4 -7 -14 -18 -21 -26 -8 -8 -18 -46 -22
-85 -6 -65 -5 -72 12 -79 11 -3 22 -11 26 -17 10 -15 226 -15 236 0 4 6 31 17
60 24 28 8 52 17 52 22 0 4 31 8 70 8 57 0 73 4 88 21 14 15 26 18 46 13 23
-5 26 -11 26 -49 0 -38 3 -43 25 -47 17 -4 25 -1 25 8 0 8 5 14 10 14 6 0 10
16 10 35 0 26 -8 43 -29 64 -24 24 -31 41 -37 90 -3 34 -11 61 -15 61 -5 0 -9
9 -9 20 0 33 -35 60 -80 60 -22 0 -40 4 -40 9 0 5 -36 13 -80 17 -44 3 -80 11
-80 15 0 5 -27 9 -60 9 -33 0 -60 -4 -60 -10z m163 -56 c37 -4 67 -11 67 -15
0 -5 22 -9 49 -9 59 0 81 -18 81 -66 0 -19 5 -34 10 -34 6 0 10 -11 10 -25 0
-30 1 -30 -157 -14 -62 7 -113 15 -113 19 0 4 -36 11 -80 14 -70 7 -80 10 -80
27 0 10 4 19 9 19 5 0 12 11 15 25 4 14 16 37 29 51 18 21 28 25 57 20 19 -3
65 -9 103 -12z"/>
<path d="M220 461 c0 -5 -14 -11 -31 -15 -16 -3 -37 -13 -45 -21 -9 -8 -26
-15 -40 -15 -13 0 -24 -4 -24 -10 0 -5 -18 -10 -40 -10 l-40 0 0 -125 0 -125
35 0 c19 0 35 4 35 8 0 5 22 14 49 21 28 7 52 18 54 24 5 17 199 17 204 0 2
-6 26 -17 54 -24 27 -7 49 -16 49 -21 0 -4 38 -8 85 -8 47 0 85 4 85 8 0 5 24
14 53 22 28 7 55 18 59 24 9 14 156 15 166 0 4 -6 30 -17 57 -24 28 -7 53 -18
56 -23 9 -13 160 -12 168 1 3 6 29 16 56 23 28 7 53 17 57 23 10 15 156 14
166 0 4 -6 31 -17 60 -24 28 -8 52 -17 52 -22 0 -4 38 -8 85 -8 47 0 85 4 85
9 0 5 21 14 47 21 26 6 51 17 55 23 10 16 200 17 205 0 2 -6 26 -17 54 -24 27
-7 49 -16 49 -21 0 -4 16 -8 35 -8 l35 0 0 125 0 125 -40 0 c-22 0 -40 5 -40
10 0 6 -11 10 -24 10 -14 0 -32 7 -40 16 -9 8 -32 18 -51 21 -19 3 -35 10 -35
14 0 5 -18 9 -40 9 -22 0 -40 -4 -40 -10 0 -5 -13 -10 -29 -10 -16 0 -36 -7
-45 -15 -8 -8 -24 -15 -35 -15 -11 0 -27 -8 -37 -17 -14 -14 -35 -18 -106 -18
-53 0 -92 4 -96 11 -4 6 -20 14 -37 18 -16 4 -33 13 -37 19 -5 8 -43 12 -111
12 -85 0 -107 -3 -121 -17 -10 -10 -28 -18 -41 -18 -13 0 -25 -6 -27 -12 -6
-18 -180 -18 -185 0 -3 6 -15 12 -28 12 -13 0 -31 8 -41 18 -14 14 -36 17
-121 17 -68 0 -106 -4 -111 -12 -4 -6 -21 -15 -37 -19 -17 -4 -33 -12 -37 -18
-4 -7 -43 -11 -96 -11 -71 0 -92 4 -106 18 -10 9 -28 17 -42 17 -13 0 -24 4
-24 9 0 5 -18 12 -40 16 -22 4 -40 11 -40 16 0 5 -20 9 -45 9 -25 0 -45 -4
-45 -9z"/>
</g>
</svg>
