<?xml version="1.0" standalone="no"?>
<!DOCTYPE svg PUBLIC "-//W3C//DTD SVG 20010904//EN"
 "http://www.w3.org/TR/2001/REC-SVG-20010904/DTD/svg10.dtd">
<svg version="1.0" xmlns="http://www.w3.org/2000/svg"
 width="225.000000pt" height="225.000000pt" viewBox="0 0 225.000000 225.000000"
 preserveAspectRatio="xMidYMid meet">
<metadata>
Created by potrace 1.13, written by Peter Selinger 2001-2015
</metadata>
<g transform="translate(0.000000,225.000000) scale(0.100000,-0.100000)"
fill="#000000" stroke="none">
<path d="M1424 1988 c-16 -13 -36 -30 -45 -38 -8 -8 -34 -30 -57 -49 -45 -37
-50 -55 -28 -104 18 -42 53 -145 60 -179 6 -24 11 -28 41 -28 l35 0 0 -749 c0
-650 2 -750 15 -761 8 -7 22 -10 30 -6 13 5 15 96 15 761 l0 755 29 0 c35 0
53 25 71 99 7 30 19 66 26 80 8 14 14 33 14 42 0 8 6 21 13 28 10 10 3 20 -34
54 -78 72 -134 117 -145 117 -6 0 -24 -10 -40 -22z m93 -88 c25 -22 50 -40 54
-40 12 0 11 -46 0 -68 -5 -9 -19 -45 -31 -79 l-22 -63 -53 0 c-59 0 -64 5 -88
70 -41 117 -42 116 16 171 29 27 58 49 65 49 8 0 34 -18 59 -40z"/>
<path d="M644 1294 c-74 -26 -112 -109 -80 -175 9 -19 23 -42 31 -53 18 -23
93 -38 135 -26 39 11 86 61 93 99 12 58 -26 131 -76 150 -48 18 -64 19 -103 5z
m80 -54 c59 -22 60 -112 3 -143 -32 -17 -36 -17 -68 -2 -48 23 -68 68 -46 104
15 26 51 51 74 51 6 0 23 -4 37 -10z"/>
<path d="M428 963 l-158 -4 0 -118 c0 -99 3 -120 16 -125 9 -3 51 -6 95 -6
l79 0 0 -75 0 -75 -195 0 -196 0 3 -122 3 -123 147 -3 147 -3 3 -117 c3 -109
4 -117 23 -117 19 0 20 8 23 117 l3 118 264 0 265 0 0 -107 c0 -113 7 -140 34
-130 12 5 16 27 18 119 l3 113 139 3 c82 1 145 7 153 14 9 7 13 41 13 119 0
60 -1 110 -2 111 -2 1 -93 4 -203 7 l-200 6 0 70 0 70 80 3 c135 4 125 -6 125
128 0 83 -3 116 -12 119 -20 6 -496 12 -670 8z m62 -63 c0 -6 -7 -27 -15 -47
-8 -19 -15 -49 -15 -65 l0 -29 -67 3 -68 3 -3 59 c-2 32 -1 65 2 72 7 17 166
20 166 4z m558 -68 l3 -73 -73 3 -73 3 -6 55 c-3 30 -9 63 -14 73 -7 16 -1 18
76 15 l84 -3 3 -73z m-228 46 c18 -20 20 -35 20 -170 l0 -148 -160 0 -160 0 0
139 c0 135 1 140 26 170 l26 31 113 0 c105 0 116 -2 135 -22z m-380 -380 c0
-6 -11 -26 -25 -44 -14 -18 -29 -44 -35 -59 l-10 -26 -122 3 -123 3 -3 54 c-2
29 -1 60 2 67 7 19 316 21 316 2z m444 -20 c8 -18 24 -46 36 -63 11 -16 20
-33 20 -37 0 -5 -113 -8 -251 -8 l-250 0 6 23 c7 23 41 83 60 104 7 9 61 12
186 13 l177 0 16 -32z m366 -38 l0 -70 -119 0 c-117 0 -120 1 -140 26 -12 15
-21 31 -21 36 0 6 -9 21 -20 35 -11 14 -20 30 -20 34 0 5 72 9 160 9 l160 0 0
-70z"/>
<path d="M1627 753 c-9 -8 -9 -646 -1 -667 5 -14 40 -16 280 -16 l274 0 0 345
0 345 -273 0 c-151 0 -277 -3 -280 -7z m498 -118 l0 -70 -225 0 -225 0 -3 59
c-2 32 -1 65 2 73 5 11 46 13 228 11 l223 -3 0 -70z m0 -315 l0 -185 -225 0
-225 0 -3 175 c-1 96 0 180 3 187 3 11 51 13 227 11 l223 -3 0 -185z"/>
</g>
</svg>
