<?xml version="1.0" standalone="no"?>
<!DOCTYPE svg PUBLIC "-//W3C//DTD SVG 20010904//EN"
 "http://www.w3.org/TR/2001/REC-SVG-20010904/DTD/svg10.dtd">
<svg version="1.0" xmlns="http://www.w3.org/2000/svg"
 width="135.000000pt" height="225.000000pt" viewBox="0 0 135.000000 225.000000"
 preserveAspectRatio="xMidYMid meet">
<metadata>
Created by potrace 1.13, written by Peter Selinger 2001-2015
</metadata>
<g transform="translate(0.000000,225.000000) scale(0.100000,-0.100000)"
fill="#000000" stroke="none">
<path d="M474 2240 c-49 -20 -54 -42 -54 -237 l0 -183 -75 0 -75 0 0 -258 0
-257 365 -183 c201 -100 371 -182 378 -182 22 0 104 92 130 145 41 83 47 138
47 445 l0 289 -77 3 -78 3 -3 185 c-2 171 -4 186 -23 206 -29 31 -62 37 -104
20 -19 -8 -36 -16 -37 -18 -1 -2 -4 -91 -7 -198 l-6 -195 -127 -3 -128 -3 0
185 c0 177 -1 186 -22 210 -25 29 -72 40 -104 26z"/>
<path d="M2 1143 l3 -116 665 -334 c366 -183 668 -333 673 -333 4 0 7 52 7
115 l0 114 -642 321 c-354 177 -658 328 -676 335 l-33 14 3 -116z"/>
<path d="M610 316 c0 -216 1 -224 23 -257 14 -21 38 -39 63 -48 36 -12 44 -12
77 4 61 29 67 51 67 244 l0 171 -110 55 c-60 30 -112 55 -115 55 -3 0 -5 -101
-5 -224z"/>
</g>
</svg>
