<?xml version="1.0" standalone="no"?>
<!DOCTYPE svg PUBLIC "-//W3C//DTD SVG 20010904//EN"
 "http://www.w3.org/TR/2001/REC-SVG-20010904/DTD/svg10.dtd">
<svg version="1.0" xmlns="http://www.w3.org/2000/svg"
 width="225.000000pt" height="225.000000pt" viewBox="0 0 225.000000 225.000000"
 preserveAspectRatio="xMidYMid meet">
<metadata>
Created by potrace 1.13, written by Peter Selinger 2001-2015
</metadata>
<g transform="translate(0.000000,225.000000) scale(0.100000,-0.100000)"
fill="#000000" stroke="none">
<path d="M777 1693 c-4 -3 -7 -42 -7 -86 0 -79 -16 -157 -32 -157 -4 0 -8 -5
-8 -11 0 -14 -18 -54 -85 -194 -30 -60 -57 -122 -60 -137 -4 -16 -11 -28 -16
-28 -5 0 -9 -5 -9 -11 0 -13 -41 -106 -139 -311 -22 -48 -41 -90 -41 -95 0 -4
-7 -21 -16 -38 -42 -79 -47 -75 76 -75 l109 0 15 32 c47 108 71 161 101 223
69 146 93 201 100 223 3 12 11 22 16 22 5 0 9 5 9 11 0 5 9 29 19 52 11 24 23
55 26 70 4 15 11 27 16 27 5 0 9 5 9 11 0 12 12 38 76 174 43 91 50 120 30
128 -13 5 -16 23 -16 92 l0 85 -83 0 c-46 0 -87 -3 -90 -7z"/>
<path d="M493 1458 c-61 -125 -113 -237 -113 -244 0 -6 -10 -29 -99 -216 -23
-47 -41 -89 -41 -93 0 -3 -20 -45 -43 -93 -24 -48 -49 -104 -56 -124 -7 -21
-16 -38 -21 -38 -5 0 -11 -13 -15 -30 -4 -16 -11 -32 -16 -35 -5 -4 -9 -13 -9
-21 0 -12 19 -14 112 -12 l111 3 10 30 c6 17 13 32 17 35 4 3 19 35 33 71 15
37 37 88 51 115 13 27 45 96 71 154 69 154 87 193 148 320 30 63 58 126 62
139 4 14 16 38 26 55 11 17 19 34 19 39 0 4 -49 7 -108 7 l-108 0 -31 -62z"/>
<path d="M996 1466 c-14 -30 -26 -58 -26 -61 0 -4 -17 -44 -39 -88 -72 -151
-99 -212 -106 -237 -4 -14 -13 -32 -20 -40 -6 -8 -23 -42 -36 -75 -13 -33 -27
-61 -31 -63 -5 -2 -8 -8 -8 -13 0 -11 -30 -78 -96 -215 -24 -50 -44 -98 -44
-108 0 -15 12 -16 107 -14 l107 3 21 50 c11 28 23 51 28 53 4 2 7 8 7 13 0 14
31 87 71 165 21 40 40 86 44 103 4 17 11 31 16 31 5 0 9 5 9 11 0 6 18 50 41
97 80 168 97 207 104 232 4 14 13 32 20 40 6 8 23 42 36 75 13 33 27 62 32 63
4 2 7 10 7 18 0 11 -22 14 -109 14 l-110 0 -25 -54z"/>
<path d="M1268 1498 c-8 -13 -23 -41 -33 -63 -10 -22 -35 -76 -55 -120 -21
-44 -42 -92 -45 -107 -4 -16 -11 -28 -16 -28 -5 0 -9 -5 -9 -12 0 -6 -16 -45
-36 -87 -20 -42 -49 -103 -64 -136 -15 -33 -46 -99 -69 -147 -22 -47 -41 -89
-41 -93 0 -3 -12 -32 -27 -63 -15 -31 -31 -65 -35 -75 -7 -16 2 -17 101 -17
l109 0 45 93 c25 50 48 103 52 117 5 14 18 41 31 61 12 20 28 55 35 77 7 23
16 42 21 42 4 0 8 5 8 11 0 10 11 35 70 164 15 33 40 89 56 125 15 36 31 67
35 70 3 3 12 22 18 43 7 20 26 62 42 92 16 30 29 59 29 65 0 6 -40 10 -104 10
-97 0 -105 -2 -118 -22z"/>
<path d="M1520 1505 c0 -8 -4 -15 -9 -15 -5 0 -12 -11 -15 -25 -4 -14 -25 -65
-47 -113 -23 -48 -51 -109 -64 -137 -12 -27 -41 -89 -64 -137 -22 -48 -41 -89
-41 -93 0 -3 -18 -43 -40 -89 -22 -46 -40 -88 -40 -95 0 -6 -4 -11 -10 -11 -5
0 -10 -6 -10 -12 0 -7 -6 -25 -14 -40 -8 -14 -19 -42 -26 -62 -6 -20 -22 -56
-36 -81 l-24 -46 112 3 112 3 45 100 c25 55 49 102 53 105 3 3 10 19 14 35 4
17 19 55 35 85 55 110 124 256 139 295 46 112 55 124 66 88 3 -10 15 -38 26
-63 11 -25 26 -58 33 -75 7 -16 28 -64 47 -105 68 -145 78 -167 78 -178 0 -6
3 -12 8 -14 8 -4 52 -103 59 -135 3 -13 9 -23 13 -23 5 0 13 -15 19 -32 7 -18
17 -45 24 -60 l12 -28 107 0 c63 0 108 4 108 10 0 5 -11 34 -25 64 -14 30 -25
60 -25 65 0 6 -4 11 -9 11 -5 0 -12 12 -16 28 -3 15 -24 63 -45 107 -83 173
-100 212 -100 223 0 7 -3 12 -8 12 -4 0 -18 28 -31 63 -13 34 -29 69 -36 77
-7 8 -16 26 -20 40 -4 14 -24 61 -45 105 -21 44 -46 99 -56 122 l-19 42 -117
1 c-98 0 -118 -3 -118 -15z"/>
<path d="M1500 710 l0 -61 63 3 62 3 0 55 0 55 -62 3 -63 3 0 -61z"/>
</g>
</svg>
