<?xml version="1.0" standalone="no"?>
<!DOCTYPE svg PUBLIC "-//W3C//DTD SVG 20010904//EN"
 "http://www.w3.org/TR/2001/REC-SVG-20010904/DTD/svg10.dtd">
<svg version="1.0" xmlns="http://www.w3.org/2000/svg"
 width="225.000000pt" height="225.000000pt" viewBox="0 0 225.000000 225.000000"
 preserveAspectRatio="xMidYMid meet">
<metadata>
Created by potrace 1.13, written by Peter Selinger 2001-2015
</metadata>
<g transform="translate(0.000000,225.000000) scale(0.100000,-0.100000)"
fill="#000000" stroke="none">
<path d="M1483 2043 c-13 -2 -23 -8 -23 -13 0 -4 -11 -11 -24 -14 -13 -3 -41
-22 -61 -42 -31 -29 -41 -34 -66 -29 -16 4 -29 10 -29 13 0 14 -99 42 -149 42
-55 0 -147 -25 -169 -46 -6 -7 -21 -16 -32 -19 -11 -3 -20 -9 -20 -13 0 -4
-16 -25 -35 -47 -20 -21 -40 -57 -46 -80 -6 -22 -16 -50 -21 -61 -11 -24 -6
-103 10 -152 10 -30 8 -35 -24 -66 -19 -18 -34 -36 -34 -39 0 -13 -35 -87 -41
-87 -4 0 -12 7 -19 15 -7 8 -18 15 -24 15 -6 0 -24 8 -41 17 -43 23 -189 24
-230 0 -16 -9 -36 -17 -43 -17 -20 0 -99 -78 -129 -129 -26 -44 -28 -53 -28
-173 -1 -124 -2 -128 -27 -147 -24 -19 -68 -119 -68 -155 0 -9 -10 -30 -21
-46 -28 -37 -30 -126 -4 -167 13 -20 19 -49 20 -112 1 -73 6 -93 29 -132 54
-94 126 -146 213 -155 100 -11 163 2 221 44 51 38 109 114 121 161 7 24 11 26
72 27 204 3 332 26 388 68 34 27 68 62 73 76 4 12 8 12 31 -3 73 -47 185 -60
273 -30 27 9 51 19 54 22 3 3 22 17 43 31 20 14 40 33 43 43 3 9 9 17 14 17 5
0 16 15 25 34 14 29 22 35 58 39 127 13 215 65 275 162 l37 60 0 120 c0 98 3
125 18 145 9 13 20 39 23 57 3 18 10 36 15 39 5 3 9 25 9 50 0 31 7 54 22 75
31 42 30 125 -3 174 -31 45 -74 59 -155 52 -34 -3 -78 -3 -98 0 l-36 6 0 81
c0 64 -5 90 -21 121 -35 66 -77 112 -127 141 -39 22 -61 27 -132 30 -47 1 -95
0 -107 -3z"/>
</g>
</svg>
