<?xml version="1.0" standalone="no"?>
<!DOCTYPE svg PUBLIC "-//W3C//DTD SVG 20010904//EN"
 "http://www.w3.org/TR/2001/REC-SVG-20010904/DTD/svg10.dtd">
<svg version="1.0" xmlns="http://www.w3.org/2000/svg"
 width="225.000000pt" height="225.000000pt" viewBox="0 0 225.000000 225.000000"
 preserveAspectRatio="xMidYMid meet">
<metadata>
Created by potrace 1.13, written by Peter Selinger 2001-2015
</metadata>
<g transform="translate(0.000000,225.000000) scale(0.100000,-0.100000)"
fill="#000000" stroke="none">
<path d="M868 2229 c-37 -14 -80 -82 -76 -122 l3 -32 -95 -5 c-63 -4 -108 -12
-134 -24 -42 -21 -112 -102 -124 -144 -4 -15 -7 -349 -7 -742 l0 -715 22 -41
c12 -22 40 -57 62 -77 23 -20 41 -41 41 -46 0 -11 -77 -81 -90 -81 -5 0 -25
-21 -45 -47 -31 -41 -35 -53 -30 -83 14 -83 115 -94 178 -19 6 8 34 33 61 55
26 21 80 65 119 96 l71 58 301 0 301 0 71 -57 c39 -32 93 -76 119 -97 27 -22
55 -47 61 -55 23 -27 68 -51 96 -51 43 0 65 17 78 60 11 37 10 42 -17 81 -15
23 -40 48 -54 57 -33 20 -90 74 -90 84 0 4 18 25 41 45 22 20 50 55 62 77 l22
41 0 715 c0 393 -3 727 -7 742 -12 42 -82 123 -124 144 -26 12 -71 20 -134 24
l-95 5 3 32 c4 44 -40 109 -84 123 -54 18 -97 -1 -129 -58 -22 -39 -24 -50
-15 -66 18 -29 -3 -36 -105 -36 -102 0 -123 7 -105 36 17 28 -30 108 -72 123
-36 13 -44 13 -80 0z m471 -254 c33 -16 41 -33 41 -79 0 -21 -8 -40 -21 -52
-19 -17 -39 -19 -234 -19 -195 0 -215 2 -234 19 -24 22 -29 82 -8 108 26 33
52 37 240 38 146 0 194 -3 216 -15z m254 -256 c42 -19 47 -47 47 -254 l0 -193
-26 -31 -26 -31 -463 0 -463 0 -26 31 -26 31 0 193 c0 203 5 235 44 253 30 15
907 16 939 1z m-808 -1033 c74 -25 105 -106 71 -188 -21 -50 -38 -60 -109 -65
-57 -5 -65 -3 -95 22 -60 50 -67 147 -14 198 48 46 84 54 147 33z m772 3 c101
-38 123 -165 41 -234 -30 -25 -38 -27 -95 -22 -35 2 -70 10 -79 18 -23 19 -44
76 -44 119 0 86 95 150 177 119z"/>
</g>
</svg>
