<?xml version="1.0" standalone="no"?>
<!DOCTYPE svg PUBLIC "-//W3C//DTD SVG 20010904//EN"
 "http://www.w3.org/TR/2001/REC-SVG-20010904/DTD/svg10.dtd">
<svg version="1.0" xmlns="http://www.w3.org/2000/svg"
 width="2000.000000pt" height="2000.000000pt" viewBox="0 0 2000.000000 2000.000000"
 preserveAspectRatio="xMidYMid meet">
<metadata>
Created by potrace 1.13, written by Peter Selinger 2001-2015
</metadata>
<g transform="translate(0.000000,2000.000000) scale(0.100000,-0.100000)"
fill="#000000" stroke="none">
<path d="M9765 19989 c-761 -78 -1420 -478 -1834 -1114 -84 -128 -194 -343
-241 -468 -32 -83 -34 -86 -54 -73 -316 207 -688 344 -1076 397 -126 18 -498
18 -620 0 -406 -57 -753 -186 -1072 -400 -381 -255 -663 -578 -863 -986 -116
-236 -187 -465 -232 -750 -21 -138 -24 -513 -4 -655 49 -358 182 -733 359
-1015 l50 -80 -106 -42 c-564 -227 -1028 -647 -1296 -1173 -138 -269 -215
-517 -257 -820 -18 -125 -18 -497 -1 -620 104 -740 485 -1357 1092 -1765 380
-255 803 -396 1266 -421 l121 -7 7 -121 c33 -605 272 -1161 687 -1600 574
-607 1452 -891 2254 -731 238 48 414 109 648 224 l157 78 0 -3923 0 -3924
1250 0 1250 0 0 3925 0 3926 93 -50 c370 -199 819 -302 1247 -287 485 17 912
153 1305 417 374 252 647 562 844 960 151 304 238 635 257 985 l7 121 125 7
c1364 73 2419 1224 2368 2586 -37 1001 -647 1850 -1603 2227 l-71 28 50 80
c178 284 308 651 360 1020 17 119 17 494 0 615 -89 636 -395 1199 -867 1597
-370 313 -804 504 -1305 575 -140 19 -504 16 -655 -6 -371 -54 -732 -190
-1041 -392 -20 -13 -22 -10 -54 73 -49 133 -161 346 -249 479 -402 604 -1002
985 -1716 1090 -124 18 -459 26 -580 13z"/>
</g>
</svg>
